<svg width="710" height="1228" viewBox="0 0 710 1228" fill="none" xmlns="http://www.w3.org/2000/svg">
<path opacity="0.04" d="M667.418 1226.03C578.215 1233.15 488.523 1220.9 404.543 1190.14C320.563 1159.38 244.297 1110.83 181.019 1047.86C117.741 984.89 68.959 908.996 38.046 825.424C7.13289 741.852 -5.1741 652.597 1.97591 563.828C14.4618 418.989 77.9537 283.193 181.249 180.4C284.544 77.6072 421.003 14.4238 566.55 1.99858C655.767 -5.17836 745.486 7.02645 829.494 37.7674C913.503 68.5084 989.793 117.051 1053.09 180.035C1116.38 243.019 1165.16 318.939 1196.05 402.539C1226.94 486.139 1239.2 575.421 1231.99 664.204C1219.51 809.043 1156.01 944.839 1052.72 1047.63C949.424 1150.43 812.964 1213.61 667.418 1226.03ZM664.566 253.474C609.024 246.27 552.56 251.859 499.531 269.81C446.503 287.761 398.327 317.595 358.721 357.009C319.114 396.423 289.135 444.365 271.096 497.135C253.057 549.906 247.44 606.095 254.68 661.367C265.376 740.688 301.975 814.311 358.843 870.902C415.71 927.493 489.693 963.914 569.401 974.558C624.944 981.762 681.407 976.173 734.436 958.222C787.464 940.271 835.64 910.438 875.247 871.023C914.854 831.609 944.833 783.668 962.872 730.897C980.91 678.127 986.527 621.937 979.288 566.665C968.706 487.299 932.144 413.613 875.255 357.001C818.366 300.389 744.32 264.004 664.566 253.474Z" fill="#1A695E"/>
</svg>
