<svg width="87" height="42" viewBox="0 0 87 42" fill="none" xmlns="http://www.w3.org/2000/svg">
<g clip-path="url(#clip0_79_110)">
<path d="M47.116 31.6863H34.8863C34.8691 31.6869 34.8522 31.6817 34.8383 31.6716C34.8243 31.6615 34.8142 31.647 34.8095 31.6304C34.8048 31.6138 34.8057 31.5962 34.8122 31.5802C34.8187 31.5643 34.8303 31.551 34.8452 31.5424L47.2855 23.6183C47.3308 23.5886 47.3682 23.5483 47.3941 23.5008C47.4201 23.4532 47.434 23.4 47.4345 23.3459V21.1413C47.4345 21.0563 47.4011 20.9747 47.3415 20.9142C47.2819 20.8536 47.2009 20.8189 47.116 20.8176H29.8989C29.8139 20.8176 29.7324 20.851 29.6718 20.9106C29.6113 20.9702 29.5766 21.0512 29.5753 21.1362V23.3356C29.5753 23.4215 29.6094 23.5038 29.6701 23.5645C29.7307 23.6252 29.813 23.6593 29.8989 23.6593H41.9848C42.0016 23.6607 42.0176 23.6672 42.0306 23.6779C42.0437 23.6887 42.053 23.7032 42.0575 23.7194C42.062 23.7357 42.0614 23.753 42.0557 23.7689C42.05 23.7848 42.0396 23.7986 42.0259 23.8084L29.4931 31.7325C29.4478 31.7621 29.4104 31.8025 29.3845 31.85C29.3585 31.8975 29.3446 31.9507 29.3441 32.0049V34.2043C29.3441 34.2888 29.3777 34.3699 29.4374 34.4296C29.4971 34.4894 29.5781 34.5229 29.6626 34.5229H47.0955C47.1799 34.5229 47.2609 34.4894 47.3207 34.4296C47.3804 34.3699 47.4139 34.2888 47.4139 34.2043V32.01C47.4139 31.925 47.3806 31.8435 47.321 31.7829C47.2614 31.7223 47.1804 31.6876 47.0955 31.6863" fill="white"/>
<path d="M83.8206 21.131V29.3532C83.8204 29.3681 83.8162 29.3826 83.8084 29.3952C83.8006 29.4079 83.7895 29.4181 83.7763 29.425C83.7632 29.4318 83.7484 29.435 83.7336 29.4341C83.7187 29.4333 83.7044 29.4284 83.6922 29.42L71.9812 20.9049C71.9039 20.8478 71.8102 20.8172 71.7141 20.8176H70.0705C69.9847 20.8176 69.9024 20.8517 69.8417 20.9124C69.781 20.9731 69.7469 21.0555 69.7469 21.1413V34.2095C69.7469 34.2953 69.781 34.3777 69.8417 34.4384C69.9024 34.4991 69.9847 34.5332 70.0705 34.5332H72.5976C72.682 34.5332 72.763 34.4996 72.8228 34.4399C72.8825 34.3801 72.916 34.2991 72.916 34.2146V26.1363C72.9162 26.1214 72.9205 26.1069 72.9283 26.0943C72.9361 26.0817 72.9471 26.0714 72.9603 26.0645C72.9735 26.0577 72.9882 26.0545 73.0031 26.0554C73.0179 26.0563 73.0322 26.0611 73.0444 26.0695L84.8581 34.6257C84.913 34.6665 84.9798 34.6881 85.0482 34.6874H86.6713C86.7159 34.6909 86.7607 34.6852 86.803 34.6705C86.8453 34.6558 86.884 34.6326 86.9169 34.6021C86.9497 34.5717 86.9759 34.5348 86.9937 34.4938C87.0116 34.4527 87.0207 34.4084 87.0205 34.3636V21.131C87.0205 21.0452 86.9865 20.9628 86.9258 20.9021C86.8651 20.8414 86.7828 20.8073 86.6969 20.8073H84.1442C84.0584 20.8073 83.976 20.8414 83.9154 20.9021C83.8547 20.9628 83.8206 21.0452 83.8206 21.131" fill="white"/>
<path d="M25.9644 34.5229H23.1445C23.0955 34.5229 23.0484 34.5034 23.0138 34.4687C22.9791 34.434 22.9596 34.387 22.9596 34.3379V21.0026C22.9596 20.9535 22.9791 20.9064 23.0138 20.8717C23.0484 20.837 23.0955 20.8176 23.1445 20.8176H25.9644C26.0134 20.8176 26.0605 20.837 26.0952 20.8717C26.1298 20.9064 26.1493 20.9535 26.1493 21.0026V34.3636C26.1493 34.4127 26.1298 34.4598 26.0952 34.4944C26.0605 34.5291 26.0134 34.5486 25.9644 34.5486" fill="white"/>
<path d="M0.328712 20.8124C0.241528 20.8124 0.157932 20.8471 0.0962834 20.9088C0.0346349 20.9704 7.62939e-06 21.0541 7.62939e-06 21.1413V34.2043C7.62939e-06 34.2888 0.0335518 34.3699 0.0932738 34.4296C0.152996 34.4894 0.234001 34.5229 0.318461 34.5229H3.11779C3.15506 34.523 3.19088 34.5085 3.21771 34.4826C3.24453 34.4568 3.26027 34.4215 3.2616 34.3842L3.22564 26.3779C3.22447 26.3612 3.22874 26.3447 3.23777 26.3306C3.2468 26.3166 3.26011 26.3059 3.27573 26.3002C3.29136 26.2944 3.30845 26.2938 3.32442 26.2986C3.34039 26.3033 3.35439 26.3131 3.36433 26.3264L9.5742 33.6339C9.59155 33.6536 9.61289 33.6694 9.6368 33.6802C9.66071 33.691 9.68665 33.6966 9.71289 33.6966C9.73912 33.6966 9.76506 33.691 9.78897 33.6802C9.81288 33.6694 9.83423 33.6536 9.85158 33.6339L16.0152 26.3008C16.0261 26.2884 16.0404 26.2796 16.0563 26.2755C16.0723 26.2714 16.0891 26.2721 16.1046 26.2776C16.12 26.2832 16.1335 26.2932 16.1432 26.3065C16.153 26.3198 16.1585 26.3357 16.159 26.3521V34.2043C16.159 34.2888 16.1926 34.3699 16.2523 34.4296C16.3121 34.4894 16.393 34.5229 16.4775 34.5229H19.0457C19.1306 34.523 19.2122 34.4896 19.2727 34.43C19.3333 34.3703 19.3679 34.2893 19.3693 34.2043V21.1413C19.3693 21.0541 19.3346 20.9704 19.273 20.9088C19.2114 20.8471 19.1278 20.8124 19.0406 20.8124H16.8576C16.754 20.812 16.6515 20.8344 16.5574 20.8779C16.4634 20.9214 16.38 20.985 16.3132 21.0642L9.77452 28.7726C9.76396 28.7837 9.75122 28.7927 9.73709 28.7988C9.72296 28.8049 9.70774 28.808 9.69235 28.808C9.67696 28.808 9.66172 28.8049 9.64759 28.7988C9.63345 28.7927 9.62072 28.7837 9.61015 28.7726L3.06127 21.0642C2.99443 20.985 2.91106 20.9214 2.81699 20.8779C2.72292 20.8344 2.62045 20.812 2.51681 20.8124H0.328712Z" fill="white"/>
<path d="M52.1394 34.5229C52.1951 34.5237 52.25 34.5099 52.2986 34.4829C52.3473 34.4558 52.388 34.4165 52.4168 34.3688L54.985 30.1395L58.3852 24.5227C58.3952 24.5056 58.4094 24.4915 58.4266 24.4817C58.4437 24.4718 58.4631 24.4666 58.4828 24.4666C58.5026 24.4666 58.522 24.4718 58.5391 24.4817C58.5562 24.4915 58.5705 24.5056 58.5804 24.5227L61.8163 29.8723L61.9807 30.1395L63.6706 32.9864L64.0558 33.6288L64.3434 34.1118L64.4975 34.3688C64.5266 34.4161 64.5674 34.4552 64.616 34.4822C64.6646 34.5092 64.7193 34.5232 64.7749 34.5229H67.7643C67.8214 34.5234 67.8776 34.5085 67.927 34.4798C67.9764 34.451 68.0172 34.4095 68.045 34.3596C68.0728 34.3096 68.0868 34.2531 68.0853 34.196C68.0838 34.1388 68.0669 34.0831 68.0365 34.0347L63.7271 26.9071L60.0854 20.9615C60.0579 20.9138 60.0181 20.8744 59.9703 20.8473C59.9224 20.8201 59.8682 20.8063 59.8132 20.8073H57.0806C57.0256 20.8063 56.9714 20.8201 56.9235 20.8473C56.8756 20.8744 56.8359 20.9138 56.8084 20.9615L48.8573 34.0347C48.8283 34.0838 48.8128 34.1397 48.8124 34.1966C48.8119 34.2536 48.8265 34.3097 48.8547 34.3592C48.8828 34.4087 48.9235 34.4499 48.9727 34.4787C49.0218 34.5074 49.0777 34.5227 49.1346 34.5229H52.1394Z" fill="white"/>
<path d="M87 14.3477H0V17.5544H87V14.3477Z" fill="#1A695E"/>
<path d="M44.0855 14.3837C42.6188 14.502 41.1511 14.1672 39.8805 13.4246C38.6099 12.6819 37.5976 11.5671 36.9803 10.2307C36.363 8.89429 36.1703 7.40058 36.4283 5.95115C36.6863 4.50171 37.3826 3.16635 38.4231 2.12532C39.4636 1.08429 40.7983 0.387711 42.2471 0.12958C43.6958 -0.12855 45.1888 0.0642 46.5245 0.681827C47.8603 1.29945 48.9746 2.31222 49.7168 3.58342C50.4591 4.85462 50.7937 6.32305 50.6755 7.79053C50.5383 9.49335 49.8 11.0918 48.5926 12.2998C47.3852 13.5078 45.7875 14.2465 44.0855 14.3837V14.3837ZM44.0547 2.97541C43.1717 2.85952 42.2746 3.02323 41.4893 3.44353C40.704 3.86384 40.07 4.51963 39.6763 5.31886C39.2826 6.11809 39.1489 7.02063 39.2941 7.89974C39.4393 8.77885 39.856 9.5904 40.4857 10.2205C41.1155 10.8505 41.9266 11.2674 42.8053 11.4127C43.684 11.5579 44.5861 11.4242 45.3849 11.0303C46.1838 10.6364 46.8393 10.0021 47.2594 9.21642C47.6795 8.43075 47.8431 7.53317 47.7273 6.64971C47.6043 5.71841 47.1778 4.85365 46.5138 4.1894C45.8499 3.52514 44.9856 3.09845 44.0547 2.97541Z" fill="#1A695E"/>
<path d="M19.1587 40.8592C19.1228 40.9928 19.0764 41.1234 19.02 41.2497C18.9744 41.3535 18.9119 41.449 18.8351 41.5324C18.7723 41.6083 18.6998 41.6757 18.6194 41.7328C18.5506 41.7863 18.4766 41.8328 18.3985 41.8715C18.3395 41.9005 18.2775 41.9229 18.2136 41.9383L18.039 41.9692L17.8797 41.9948H17.741C17.6069 41.996 17.4729 41.9857 17.3404 41.964C17.2291 41.9469 17.1204 41.9158 17.0168 41.8715C16.9298 41.8303 16.8472 41.7804 16.7703 41.7225C16.7001 41.6741 16.6363 41.6171 16.5802 41.5529L16.4621 41.409C16.4313 41.3577 16.3953 41.3011 16.3696 41.2497C16.3398 41.197 16.314 41.142 16.2926 41.0853C16.2724 41.0315 16.2553 40.9766 16.2412 40.9208C16.2412 40.854 16.2053 40.7924 16.1899 40.7307C16.1668 40.6656 16.1496 40.5985 16.1385 40.5303C16.1385 40.4686 16.1385 40.4121 16.1385 40.3555C16.1385 40.299 16.1385 40.2476 16.1385 40.1962C16.1327 39.9289 16.1744 39.6627 16.2618 39.41C16.3358 39.2009 16.4633 39.0149 16.6316 38.8704C16.7843 38.7369 16.9578 38.6293 17.1452 38.5518C17.3364 38.4833 17.538 38.4485 17.741 38.449C17.8888 38.4486 18.0358 38.4693 18.1776 38.5107C18.3186 38.5482 18.4522 38.609 18.5731 38.6906C18.6992 38.7687 18.8063 38.8741 18.8865 38.9989C18.9821 39.1358 19.0517 39.2891 19.0919 39.4511L18.6502 39.5436C18.6484 39.5283 18.6484 39.5127 18.6502 39.4974L18.6245 39.4357C18.6265 39.4152 18.6265 39.3945 18.6245 39.374L18.5937 39.3072C18.5609 39.2464 18.5212 39.1895 18.4755 39.1376C18.4284 39.0787 18.373 39.0268 18.3112 38.9835C18.2453 38.9334 18.1703 38.8967 18.0903 38.8756C17.9899 38.8479 17.8863 38.8341 17.7821 38.8345C17.6246 38.8306 17.4677 38.8567 17.3199 38.9115C17.1964 38.9539 17.0865 39.0284 17.0014 39.1274C16.9251 39.2208 16.8596 39.3224 16.8062 39.4306C16.7525 39.5363 16.7128 39.6486 16.6881 39.7646C16.6857 39.8022 16.6857 39.84 16.6881 39.8776V39.9856C16.6881 40.0215 16.6881 40.0524 16.6881 40.0883C16.6881 40.1243 16.6881 40.1552 16.6881 40.1911C16.6881 40.2271 16.6881 40.2477 16.6881 40.2888C16.6881 40.3299 16.6881 40.3813 16.6881 40.4429C16.6881 40.5046 16.6881 40.5663 16.7138 40.6331L16.76 40.8283C16.76 40.8643 16.76 40.9003 16.796 40.9414C16.81 40.9771 16.8271 41.0115 16.8473 41.0442C16.8618 41.0823 16.8808 41.1185 16.9038 41.1521C16.9248 41.1867 16.9489 41.2194 16.9757 41.2497C17.0198 41.2982 17.0679 41.3429 17.1195 41.3833C17.1699 41.4241 17.2251 41.4587 17.2839 41.4861C17.3398 41.5154 17.3983 41.5395 17.4586 41.5581L17.6383 41.594H17.7821C17.9146 41.5981 18.0467 41.579 18.1725 41.5375C18.2789 41.4993 18.3754 41.4378 18.455 41.3576C18.5245 41.2779 18.5864 41.1919 18.6399 41.1007C18.6918 41.0141 18.7316 40.9207 18.758 40.8232C18.758 40.8232 18.758 40.8232 18.758 40.7924C18.7561 40.7839 18.7561 40.7751 18.758 40.7667V40.7667L19.1587 40.8592Z" fill="white"/>
<path d="M22.5538 39.5025C22.6302 39.2885 22.7551 39.095 22.9185 38.9372C23.068 38.7955 23.2421 38.6823 23.4322 38.6032C23.63 38.5254 23.8411 38.487 24.0537 38.4902C24.2732 38.4887 24.4911 38.5288 24.6957 38.6084C24.8893 38.6903 25.0641 38.8109 25.2093 38.9629C25.3659 39.1214 25.4852 39.3127 25.5586 39.5231C25.6418 39.7607 25.6818 40.0113 25.6768 40.2631C25.6797 40.5163 25.6397 40.7683 25.5586 41.0082C25.4815 41.2176 25.3587 41.4073 25.1991 41.5632C25.0545 41.7135 24.8794 41.8309 24.6855 41.9075C24.2537 42.0718 23.7766 42.0718 23.3449 41.9075C23.1443 41.8213 22.968 41.6872 22.8312 41.5169C22.702 41.3442 22.5982 41.1539 22.523 40.9517C22.4508 40.7506 22.4142 40.5384 22.4152 40.3247V40.3247C22.4115 40.0445 22.4585 39.766 22.5538 39.5025V39.5025ZM22.9802 40.8489C23.0295 41.0066 23.1118 41.152 23.2216 41.2754C23.3236 41.3955 23.4519 41.4904 23.5965 41.5529C23.7462 41.6148 23.9072 41.6446 24.0691 41.6403C24.2186 41.6423 24.3671 41.6144 24.5057 41.5581C24.6467 41.4981 24.7755 41.4127 24.8858 41.3063C25.0088 41.1884 25.1005 41.0419 25.1528 40.8797C25.2139 40.68 25.2434 40.4719 25.2402 40.2631C25.2447 40.0487 25.2135 39.8351 25.1477 39.631C25.0956 39.4675 25.0018 39.3205 24.8755 39.2044C24.7656 39.1013 24.6387 39.0179 24.5006 38.9578C24.3664 38.9049 24.2236 38.877 24.0794 38.8756C23.9894 38.8754 23.8998 38.8857 23.8123 38.9064C23.7215 38.9264 23.6335 38.9575 23.5503 38.9989C23.4675 39.0339 23.3911 39.0825 23.3243 39.1428C23.2554 39.199 23.1949 39.2647 23.1445 39.3381C23.1245 39.3635 23.1072 39.3911 23.0932 39.4203C23.0774 39.4466 23.0637 39.4741 23.0521 39.5025C23.0502 39.5179 23.0502 39.5334 23.0521 39.5488C23.053 39.5625 23.053 39.5762 23.0521 39.5899C23.0521 39.5899 23.0521 39.6207 23.0521 39.6361V39.6824C23.0278 39.7471 23.0105 39.8143 23.0007 39.8828C22.9957 39.9461 22.9957 40.0096 23.0007 40.0729C23.0007 40.1346 23.0007 40.186 23.0007 40.222V40.3042C22.9678 40.4769 22.9608 40.6536 22.9802 40.8283V40.8489Z" fill="white"/>
<path d="M29.1746 38.5159H29.642L31.4295 41.2086V38.5159H31.8558V41.9435H31.3936L29.6061 39.2559V41.9435H29.1746V38.5159Z" fill="white"/>
<path d="M35.7595 40.8027C35.7595 40.8284 35.7595 40.8489 35.7595 40.8694C35.7595 40.89 35.7595 40.9106 35.7595 40.9362C35.7595 40.9619 35.7595 40.9877 35.7595 41.0185C35.7657 41.0449 35.7743 41.0707 35.7852 41.0956C35.8099 41.1456 35.841 41.1922 35.8776 41.2343C35.9138 41.2756 35.9552 41.3119 36.0009 41.3422L36.1396 41.4193L36.2885 41.4759H36.345C36.3636 41.4804 36.383 41.4804 36.4015 41.4759H36.4529H36.5145H36.7046C36.8151 41.4749 36.9252 41.4628 37.0333 41.4399C37.1292 41.4161 37.221 41.378 37.3055 41.3268C37.3832 41.2838 37.4478 41.2204 37.4921 41.1434C37.5365 41.0665 37.559 40.9788 37.5572 40.89C37.5578 40.8194 37.5438 40.7494 37.5161 40.6844C37.4867 40.6262 37.4446 40.5753 37.3928 40.5354C37.3273 40.4942 37.2585 40.4581 37.1874 40.4275C37.0934 40.3895 36.9974 40.3569 36.8997 40.3299H36.8124L36.72 40.3042H36.6172L36.5145 40.2785H36.4272H36.3348H36.2423L36.1499 40.2425C36.0555 40.2142 35.9643 40.1763 35.8776 40.1294C35.7916 40.0806 35.7092 40.0257 35.6311 39.965C35.5532 39.9028 35.493 39.8213 35.4564 39.7286C35.4148 39.6224 35.3955 39.5086 35.3999 39.3946C35.3981 39.2667 35.4253 39.1402 35.4796 39.0244C35.5339 38.9087 35.6138 38.8068 35.7132 38.7265C35.8239 38.6306 35.9534 38.5589 36.0933 38.5159C36.26 38.4668 36.4333 38.4443 36.607 38.4491C36.7805 38.446 36.9536 38.4685 37.1206 38.5159C37.2642 38.5578 37.3997 38.6238 37.5213 38.7111C37.6387 38.7927 37.734 38.9022 37.7986 39.0297C37.8639 39.1699 37.8989 39.3222 37.9013 39.4768H37.4648C37.4623 39.4615 37.4623 39.4459 37.4648 39.4306C37.4665 39.4118 37.4665 39.3928 37.4648 39.374C37.4672 39.3553 37.4672 39.3363 37.4648 39.3175V39.2507C37.4389 39.1965 37.408 39.1449 37.3723 39.0966C37.3307 39.0457 37.2823 39.0007 37.2285 38.9629C37.1637 38.9133 37.0879 38.8798 37.0076 38.8653C36.9001 38.8387 36.7896 38.8266 36.6789 38.8293H36.5043H36.4683H36.4323H36.3912C36.3316 38.841 36.2731 38.8582 36.2166 38.8807C36.158 38.9075 36.1014 38.9384 36.0471 38.9732C35.9972 39.0093 35.9567 39.0569 35.929 39.112C35.901 39.175 35.887 39.2434 35.8879 39.3124C35.8872 39.3704 35.8977 39.4279 35.9187 39.482C35.9389 39.5315 35.9728 39.5743 36.0163 39.6053C36.0702 39.6491 36.1309 39.6839 36.1961 39.7081C36.2873 39.7485 36.3818 39.7811 36.4786 39.8057H36.5299H36.5608H36.5864H36.6481H36.7097H36.8124H36.8381H36.8689H36.8997C37.0364 39.8358 37.1704 39.8771 37.3004 39.929C37.4275 39.9807 37.5511 40.0408 37.6702 40.1089C37.7846 40.1708 37.8776 40.2657 37.9373 40.3813C38.0007 40.516 38.0307 40.6641 38.0246 40.8129C38.0275 40.9499 37.9976 41.0856 37.9373 41.2086C37.8768 41.3343 37.789 41.4448 37.6805 41.5324C37.5652 41.6352 37.4283 41.7108 37.2798 41.7533C37.113 41.8019 36.94 41.8261 36.7662 41.8253C36.5837 41.8272 36.4013 41.8117 36.2217 41.779C36.0842 41.7544 35.9531 41.7019 35.8365 41.6249C35.7362 41.5598 35.6462 41.4801 35.5694 41.3885C35.4953 41.3022 35.4347 41.2052 35.3896 41.1007L35.3434 40.9671C35.3434 40.926 35.3434 40.89 35.3178 40.854C35.2921 40.8181 35.3178 40.7872 35.3178 40.7564C35.3155 40.7308 35.3155 40.7049 35.3178 40.6793V40.6793L35.7595 40.8027Z" fill="white"/>
<path d="M44.2448 38.5159V40.6433C44.2448 40.6947 44.2448 40.7461 44.2448 40.8027C44.2472 40.8317 44.2472 40.861 44.2448 40.89C44.2472 40.9191 44.2472 40.9483 44.2448 40.9774V41.0647C44.2429 41.0938 44.2429 41.123 44.2448 41.1521C44.2154 41.2608 44.1704 41.3646 44.1112 41.4604C44.0449 41.5629 43.9674 41.6577 43.8801 41.7431C43.7777 41.839 43.652 41.9063 43.5154 41.9383C43.1322 42.0306 42.7327 42.0306 42.3495 41.9383C42.2014 41.9001 42.0676 41.8198 41.9642 41.7071C41.7927 41.5073 41.6806 41.2634 41.6406 41.0031V40.8797C41.6381 40.8387 41.6381 40.7975 41.6406 40.7564C41.6382 40.717 41.6382 40.6776 41.6406 40.6382V38.5313H42.0927V40.7101C42.0904 40.7427 42.0904 40.7753 42.0927 40.8078C42.0927 40.8438 42.0927 40.8746 42.0927 40.9106C42.1039 40.9993 42.1281 41.0858 42.1645 41.1675C42.1969 41.251 42.242 41.329 42.2981 41.3988C42.3623 41.4766 42.4481 41.5338 42.5446 41.5632C42.6708 41.6033 42.8027 41.6224 42.935 41.6197C43.11 41.6277 43.2848 41.5997 43.4486 41.5375C43.5651 41.4967 43.661 41.4118 43.7157 41.3011C43.7653 41.1875 43.8015 41.0685 43.8236 40.9465C43.8512 40.8061 43.865 40.6632 43.8647 40.52V38.5313L44.2448 38.5159Z" fill="white"/>
<path d="M47.8505 38.5159H48.3077V41.5581H49.9924V41.964H47.8505V38.5159Z" fill="white"/>
<path d="M53.8909 38.9218H52.766V38.5159H55.478V38.9218H54.3429V41.9435H53.8909V38.9218Z" fill="white"/>
<path d="M58.8937 38.5159H59.3457V41.9435H58.8937V38.5159Z" fill="white"/>
<path d="M63.0285 38.5159H63.4959L65.2834 41.2086V38.5159H65.7149V41.9435H65.2474L63.46 39.2559V41.9435H63.0285V38.5159Z" fill="white"/>
<path d="M70.9334 40.1962H72.387V41.4656L72.3202 41.5221L72.2483 41.5837L72.1507 41.6506L72.0429 41.7122C71.9766 41.7553 71.906 41.7915 71.8323 41.8201C71.7515 41.8588 71.6672 41.8897 71.5806 41.9126C71.3816 41.9686 71.1761 41.9979 70.9694 42C70.7283 42.0042 70.4884 41.966 70.2605 41.887C70.0521 41.8098 69.8616 41.6909 69.7007 41.5375C69.5405 41.379 69.4162 41.188 69.336 40.9774C69.2544 40.7446 69.2145 40.4994 69.2179 40.2528C69.2179 40.2065 69.2179 40.1551 69.2179 40.1037V39.9496C69.2179 39.8931 69.2179 39.8365 69.2179 39.78C69.2179 39.7235 69.2487 39.6721 69.2692 39.6104C69.3145 39.4673 69.3784 39.3308 69.4593 39.2044C69.5423 39.0644 69.6462 38.9379 69.7674 38.8293C69.8979 38.7034 70.0563 38.61 70.2297 38.5569C70.4435 38.4961 70.665 38.4667 70.8872 38.4696C71.0388 38.4688 71.1902 38.4826 71.3392 38.5107C71.4564 38.536 71.5691 38.5794 71.673 38.6392C71.7587 38.6942 71.841 38.7542 71.9196 38.819C71.9831 38.8777 72.0399 38.9432 72.0891 39.0143C72.1202 39.0582 72.1478 39.1046 72.1713 39.1531C72.1928 39.194 72.21 39.2371 72.2226 39.2815L72.2637 39.3946C72.2637 39.4306 72.2637 39.4563 72.2637 39.482L71.858 39.5899C71.8565 39.5693 71.8565 39.5487 71.858 39.5282L71.8323 39.4511C71.8225 39.4211 71.8105 39.3919 71.7963 39.3638L71.745 39.2713C71.7114 39.2158 71.6699 39.1656 71.6217 39.1222C71.5719 39.0698 71.5148 39.0248 71.4522 38.9886C71.3796 38.9382 71.2974 38.9032 71.2108 38.8858C70.9533 38.8361 70.6879 38.8467 70.4352 38.9167C70.315 38.9456 70.2038 39.0039 70.1116 39.0863C70.0299 39.159 69.9559 39.2399 69.8907 39.3278C69.8355 39.4119 69.789 39.5014 69.752 39.595C69.7277 39.6531 69.7088 39.7133 69.6956 39.7749C69.6787 39.8337 69.6666 39.8939 69.6596 39.9547C69.6596 40.0113 69.6596 40.0626 69.6596 40.1037C69.6596 40.1449 69.6596 40.1911 69.6596 40.2271C69.6519 40.316 69.6519 40.4054 69.6596 40.4943C69.6696 40.5842 69.685 40.6735 69.7058 40.7615C69.7289 40.8455 69.7617 40.9266 69.8034 41.0031C69.8416 41.0822 69.8919 41.1551 69.9524 41.2189C70 41.2707 70.0515 41.3188 70.1065 41.3628C70.1633 41.4036 70.2235 41.4397 70.2862 41.4707L70.4814 41.5426L70.6817 41.5889H70.8975C70.9693 41.5942 71.0414 41.5942 71.1132 41.5889L71.3032 41.5478L71.483 41.4861L71.6319 41.4193L71.7244 41.3679L71.8015 41.3217L71.858 41.2806L71.8991 41.2497V40.6022H70.8718L70.9334 40.1962Z" fill="white"/>
</g>
<defs>
<clipPath id="clip0_79_110">
<rect width="87" height="42" fill="white"/>
</clipPath>
</defs>
</svg>
